<?xml version="1.0" encoding="UTF-8"?>
<svg width="58px" height="92px" viewBox="0 0 58 92" version="1.1" xmlns="http://www.w3.org/2000/svg" xmlns:xlink="http://www.w3.org/1999/xlink">
    <!-- Generator: Sketch 63.1 (92452) - https://sketch.com -->
    <title>next</title>
    <desc>Created with Sketch.</desc>
    <g id="Page-1" stroke="none" stroke-width="1" fill="none" fill-rule="evenodd">
        <g id="Artboard-Copy" transform="translate(-13.000000, 0.000000)" fill="#26B9CC" fill-rule="nonzero">
            <g id="next" transform="translate(41.500000, 46.000000) rotate(-180.000000) translate(-41.500000, -46.000000) translate(12.000000, -0.000000)">
                <path d="M55.8253933,40.6685483 L17.3423101,2.24273258 C15.9250966,0.747370787 14.1553888,0 12.0296719,0 C9.90395506,0 8.13424719,0.748197753 6.71703371,2.24273258 L2.23115506,6.67031011 C0.774867416,8.12639101 0.0467235955,9.89630562 0.0467235955,11.9819146 C0.0467235955,14.028036 0.774660674,15.8190382 2.23115506,17.3532674 L30.9171685,45.9813933 L2.22991461,74.6684404 C0.774040449,76.1245213 0.0458966292,77.894436 0.0458966292,79.9802517 C0.0458966292,82.0261663 0.773833708,83.8177888 2.22991461,85.3513978 L6.71620674,89.7783551 C8.17228764,91.234436 9.94385618,91.962373 12.0288449,91.962373 C14.1146607,91.962373 15.8858157,91.234436 17.3414831,89.7783551 L55.8253933,51.3525393 C57.2820944,49.8178966 58.0108585,48.0273079 58.0108585,45.9811865 C58.0108585,43.8955775 57.2820944,42.1246292 55.8253933,40.6685483 Z" id="Path"></path>
            </g>
        </g>
    </g>
</svg>